<svg width="170" height="173" viewBox="0 0 170 173" version="1.1" xmlns="http://www.w3.org/2000/svg" xmlns:xlink="http://www.w3.org/1999/xlink">
<title>best_price_sticker</title>
<desc>Created using Figma</desc>
<g id="Canvas" transform="translate(-26612 -2232)">
<clipPath id="clip-0" clip-rule="evenodd">
<path d="M 26612 2232L 26782 2232L 26782 2405L 26612 2405L 26612 2232Z" fill="#FFFFFF"/>
</clipPath>
<g id="best_price_sticker" clip-path="url(#clip-0)">
<g id="Group">
<g id="Group">
<g id="Vector">
<use xlink:href="#path0_fill" transform="translate(26612 2235)" fill="#76C68B"/>
</g>
<g id="Group">
<g id="Vector">
<use xlink:href="#path1_fill" transform="matrix(0.847909 0.530142 -0.526986 0.849874 26656.3 2258.68)" fill="#FFFFFF"/>
</g>
<g id="Vector">
<use xlink:href="#path2_fill" transform="matrix(0.847909 0.530142 -0.526986 0.849874 26673.8 2248.09)" fill="#FFFFFF"/>
</g>
<g id="Vector">
<use xlink:href="#path3_fill" transform="matrix(0.847909 0.530142 -0.526986 0.849874 26692 2247.6)" fill="#FFFFFF"/>
</g>
<g id="Vector">
<use xlink:href="#path4_fill" transform="matrix(0.847909 0.530142 -0.526986 0.849874 26709.4 2248.44)" fill="#FFFFFF"/>
</g>
<g id="Vector">
<use xlink:href="#path5_fill" transform="matrix(0.847909 0.530142 -0.526986 0.849874 26732.2 2262.19)" fill="#FFFFFF"/>
</g>
<g id="Vector">
<use xlink:href="#path6_fill" transform="matrix(0.847909 0.530142 -0.526986 0.849874 26742.7 2274.75)" fill="#FFFFFF"/>
</g>
<g id="Vector">
<use xlink:href="#path7_fill" transform="matrix(0.847909 0.530142 -0.526986 0.849874 26748.4 2291.31)" fill="#FFFFFF"/>
</g>
<g id="Vector">
<use xlink:href="#path8_fill" transform="matrix(0.847909 0.530142 -0.526986 0.849874 26749.6 2304.18)" fill="#FFFFFF"/>
</g>
<g id="Vector">
<use xlink:href="#path9_fill" transform="matrix(0.847909 0.530142 -0.526986 0.849874 26746 2321.32)" fill="#FFFFFF"/>
</g>
</g>
<g id="Group">
<g id="Vector">
<use xlink:href="#path10_fill" transform="matrix(0.847909 0.530142 -0.526986 0.849874 26635.9 2294.01)" fill="#FFFFFF"/>
</g>
<g id="Vector">
<use xlink:href="#path11_fill" transform="matrix(0.847909 0.530142 -0.526986 0.849874 26636.7 2310.04)" fill="#FFFFFF"/>
</g>
<g id="Vector">
<use xlink:href="#path12_fill" transform="matrix(0.847909 0.530142 -0.526986 0.849874 26637.2 2328.31)" fill="#FFFFFF"/>
</g>
<g id="Vector">
<use xlink:href="#path13_fill" transform="matrix(0.847909 0.530142 -0.526986 0.849874 26651.1 2343.29)" fill="#FFFFFF"/>
</g>
<g id="Vector">
<use xlink:href="#path14_fill" transform="matrix(0.847909 0.530142 -0.526986 0.849874 26664.5 2356.32)" fill="#FFFFFF"/>
</g>
<g id="Vector">
<use xlink:href="#path15_fill" transform="matrix(0.847909 0.530142 -0.526986 0.849874 26681.6 2361.06)" fill="#FFFFFF"/>
</g>
<g id="Vector">
<use xlink:href="#path16_fill" transform="matrix(0.847909 0.530142 -0.526986 0.849874 26698.6 2360.71)" fill="#FFFFFF"/>
</g>
<g id="Vector">
<use xlink:href="#path17_fill" transform="matrix(0.847909 0.530142 -0.526986 0.849874 26714.7 2357.8)" fill="#FFFFFF"/>
</g>
<g id="Vector">
<use xlink:href="#path18_fill" transform="matrix(0.847909 0.530142 -0.526986 0.849874 26727.5 2351.47)" fill="#FFFFFF"/>
</g>
</g>
</g>
<g id="Group">
<g id="Vector">
<use xlink:href="#path19_fill" transform="translate(26665 2294)" fill="#FFFFFF"/>
</g>
</g>
<g id="Group" filter="url(#filter0_d)">
<g id="Vector">
<use xlink:href="#path20_fill" transform="translate(26714 2331)" fill="#ADDCB9"/>
</g>
</g>
</g>
</g>
</g>
<defs>
<filter id="filter0_d" filterUnits="userSpaceOnUse" x="26713" y="2330" width="64" height="72" color-interpolation-filters="sRGB">
<feFlood flood-opacity="0" result="BackgroundImageFix"/>
<feColorMatrix in="SourceAlpha" type="matrix" values="0 0 0 0 0 0 0 0 0 0 0 0 0 0 0 0 0 0 255 0"/>
<feOffset dx="-0.743" dy="-0.669"/>
<feColorMatrix type="matrix" values="0 0 0 0 0 0 0 0 0 0 0 0 0 0 0 0 0 0 0.16 0"/>
<feBlend mode="normal" in2="BackgroundImageFix" result="effect1_dropShadow"/>
<feBlend mode="normal" in="SourceGraphic" in2="effect1_dropShadow" result="shape"/>
</filter>
<path id="path0_fill" fill-rule="evenodd" d="M 62.1211 2.89898C 106.82 -9.1749 152.765 17.5674 164.74 62.6328C 167.807 74.1737 164.31 96.0909 164.31 96.0909L 101.881 165.658C 101.881 165.658 103.156 166.698 101.985 166.961C 58.4163 176.756 14.5396 150.245 2.87607 106.361C -9.10126 61.2953 17.4239 14.9749 62.1211 2.89898Z"/>
<path id="path1_fill" d="M 17.5376 17.5044L 4.23421e-07 10.4364L 2.44194 4.47272C 3.32992 2.48485 4.2179 1.1596 5.54987 0.49697C 6.65984 -0.165656 8.2138 -0.165656 9.76776 0.49697C 10.6557 0.717846 11.0997 1.38047 11.7657 2.04309C 12.2097 2.70572 12.4317 3.58922 12.4317 4.47272C 13.0977 3.58922 13.7637 3.14747 14.8736 2.9266C 15.7616 2.70572 16.6496 2.70572 17.7596 3.14747C 19.3135 3.8101 20.4235 4.91448 20.8675 6.23973C 21.3115 7.56498 21.0895 9.33198 20.4235 11.3199L 17.5376 17.5044ZM 8.65779 10.4364L 9.76776 7.56498C 10.2118 6.68148 10.2118 5.79798 9.98976 5.13535C 9.76776 4.47273 9.32377 3.8101 8.4358 3.58922C 7.54782 3.14747 6.88183 3.14747 6.21585 3.58922C 5.54987 4.03097 5.10587 4.6936 4.66189 5.5771L 3.55191 8.44848L 8.65779 10.4364ZM 10.8777 11.3199L 16.4276 13.5286L 17.7596 10.2155C 18.2036 9.33198 18.2036 8.44848 17.9816 7.78585C 17.7596 7.12323 17.0936 6.4606 16.4276 6.23973C 14.6516 5.5771 13.3197 6.01885 12.4317 7.78585L 10.8777 11.3199Z"/>
<path id="path2_fill" d="M 15.0956 7.73064L 10.2118 13.6943L 14.6516 17.4491L 20.4235 10.602L 22.4215 12.369L 14.4297 21.8667L 0 9.49764L 7.76981 8.42572e-07L 9.76776 1.767L 3.9959 8.61414L 7.99181 11.9273L 12.8757 5.96363L 15.0956 7.73064Z"/>
<path id="path3_fill" d="M 14.3729 11.5722C 13.9289 10.9095 13.2629 10.4678 12.5969 10.4678C 11.931 10.4678 10.821 10.6887 9.26702 11.1304C 7.71306 11.5722 6.38109 11.793 5.27112 11.793C 3.27316 11.793 1.7192 11.1304 0.831224 9.58429C -0.056755 8.25904 -0.278751 6.93379 0.387233 5.38766C 0.831222 3.84153 1.9412 2.51628 3.71715 1.4119C 4.82713 0.749276 5.9371 0.307527 7.04707 0.0866513C 8.15704 -0.134224 9.26702 0.0866509 10.155 0.528402C 11.043 0.970152 11.931 1.63278 12.5969 2.51628L 9.933 4.28328C 9.48901 3.39978 8.82303 2.95803 7.93505 2.95803C 7.04707 2.73715 6.15909 3.1789 5.27112 3.62065C 4.38314 4.28328 3.71715 4.94591 3.49516 5.60853C 3.27316 6.27116 3.27316 6.93379 3.71715 7.59641C 4.16114 8.25904 4.60513 8.47991 5.49311 8.47991C 6.38109 8.47991 7.49106 8.25904 8.82303 7.81729C 10.155 7.37554 11.487 7.15466 12.5969 7.15466C 13.7069 7.15466 14.5949 7.37554 15.2609 7.59641C 15.9269 8.03816 16.5928 8.47991 17.2588 9.36341C 18.1468 10.6887 18.3688 12.0139 17.7028 13.56C 17.2588 14.8853 16.1488 16.2105 14.3729 17.3149C 13.2629 17.9776 11.931 18.6402 10.821 18.6402C 9.48901 18.8611 8.37904 18.6402 7.49106 18.4193C 6.38109 17.9776 5.7151 17.3149 5.04912 16.4314L 7.71305 14.6644C 8.37904 15.5479 9.04502 15.9897 9.933 16.2105C 10.821 16.2105 11.931 15.9897 13.0409 15.327C 13.9289 14.6644 14.5949 14.0018 14.8169 13.3392C 14.8169 12.8974 14.8169 12.2348 14.3729 11.5722Z"/>
<path id="path4_fill" d="M 15.3176 2.6505L 9.54577 4.19663L 13.7637 19.8788L 10.6557 20.7623L 6.43785 5.08013L 0.665984 6.40539L 1.69368e-06 3.97576L 14.4297 -4.21286e-07L 15.3176 2.6505Z"/>
<path id="path5_fill" d="M 4.43989 12.1481L 3.32992 18.9953L 1.69368e-06 18.3327L 3.10792 0L 10.2118 1.32525C 12.2097 1.767 13.7637 2.42963 14.8736 3.75488C 15.9836 5.08013 16.2056 6.62626 15.9836 8.39326C 15.7616 10.1603 14.8736 11.4855 13.5417 12.369C 12.2097 13.2525 10.4338 13.4734 8.21381 13.0316L 4.43989 12.1481ZM 4.88389 9.71851L 8.87979 10.3811C 9.98976 10.602 10.8777 10.3811 11.7657 9.93939C 12.4317 9.49764 12.8757 8.83501 13.0977 7.73064C 13.3197 6.62626 13.0977 5.96363 12.6537 5.08013C 12.2097 4.19663 11.3217 3.97576 10.2118 3.75488L 6.21585 3.09225L 4.88389 9.71851Z"/>
<path id="path6_fill" d="M 9.54577 13.6943L 6.21585 11.9273L 2.88593 18.1118L 1.69368e-06 16.5656L 9.10178 4.21286e-07L 14.8736 3.09225C 16.8716 4.19663 17.9816 5.30101 18.6475 6.84713C 19.3135 8.39326 19.0915 9.71851 18.2036 11.4855C 17.5376 12.5899 16.8716 13.4734 15.9836 13.9151C 15.0956 14.3569 13.9857 14.5778 12.8757 14.3569L 12.8757 23.1919L 12.8757 23.4128L 9.54577 21.8667L 9.54577 13.6943ZM 7.54781 9.49764L 10.4338 11.0438C 11.3217 11.4855 12.2097 11.7064 13.0977 11.4855C 13.9857 11.2646 14.6516 10.8229 15.0956 9.93939C 15.5396 9.05589 15.7616 8.17239 15.5396 7.50976C 15.3176 6.84714 14.6517 6.18451 13.7637 5.52188L 10.6557 3.97576L 7.54781 9.49764Z"/>
<path id="path7_fill" d="M 2.44194 16.1239L -1.69368e-06 13.9151L 12.6537 4.21286e-07L 15.0956 2.20875L 2.44194 16.1239Z"/>
<path id="path8_fill" d="M 10.6557 16.4314C 8.87978 17.3149 7.10383 17.7567 5.54986 17.3149C 3.77391 16.8732 2.44194 15.7688 1.33197 14.0018C 0.443993 12.6765 -1.69368e-06 11.5722 -1.69368e-06 10.026C -1.69368e-06 8.70079 0.221993 7.37554 1.10997 6.05029C 1.77596 4.72503 2.88593 3.62066 4.43989 2.73716L 5.99385 1.85365C 7.54782 0.749275 8.87978 0.307526 10.4337 0.0866504C 11.9877 -0.134225 13.3197 0.0866521 14.6516 0.528403C 15.9836 1.19103 17.0936 2.07453 17.9816 3.1789C 19.0915 4.94591 19.5355 6.49204 19.3135 8.25904C 19.0915 10.026 18.2036 11.3513 16.6496 12.6765L 14.8736 10.026C 15.9836 9.14254 16.4276 8.25903 16.6496 7.37553C 16.8716 6.49203 16.4276 5.60853 15.7616 4.50416C 14.8736 3.39978 13.9857 2.73716 12.6537 2.73716C 11.3217 2.73716 9.76776 3.1789 8.2138 4.28328L 5.99385 5.38766C 4.2179 6.49203 3.10792 7.81729 2.66394 8.92166C 2.21995 10.026 2.44194 11.3513 3.10793 12.4557C 3.77391 13.56 4.66189 14.2227 5.54986 14.4435C 6.43784 14.6644 7.32582 14.4435 8.65779 13.7809L 10.6557 16.4314Z"/>
<path id="path9_fill" d="M 11.3217 13.4734L 9.10178 5.96364L 3.55191 7.50976L 5.99386 16.1239L 3.55191 16.7865L 0 5.30101L 18.2036 -8.42573e-07L 21.7555 11.7064L 19.0915 12.369L 16.6496 3.75488L 11.5437 5.30101L 13.7637 12.8108L 11.3217 13.4734Z"/>
<path id="path10_fill" d="M 5.41496 17.5698C 4.30499 17.1281 3.41701 16.4655 2.52903 15.582C 1.64105 14.6985 0.975069 13.3732 0.53108 11.8271C 0.0870904 10.281 -0.134906 8.9557 0.0870887 7.40957C 0.309083 6.08432 0.975069 4.75907 2.08504 3.65469C 3.19502 2.55031 4.52698 1.66682 6.08095 1.22507L 7.41291 0.783313C 10.0768 -0.100188 12.5188 -0.321068 14.5167 0.562433C 16.5147 1.22506 17.8467 2.77119 18.7346 5.20082C 19.4006 7.1887 19.4006 8.95569 18.9566 10.5018C 18.2907 12.0479 17.1807 13.1523 15.4047 14.0358L 14.2947 10.9436C 16.2927 9.8392 16.9587 8.29307 16.2927 6.08432C 15.8487 4.75906 14.9607 3.87557 13.6288 3.43382C 12.2968 2.99207 10.7428 3.21294 8.74488 3.87556L 7.41291 4.31732C 5.41496 4.97994 4.08299 5.86344 3.41701 7.18869C 2.52903 8.29307 2.52903 9.61833 2.97302 11.1645C 3.41701 12.7106 4.30499 13.815 5.19297 14.2567L 8.74488 13.1523L 7.41291 9.39745L 9.85485 8.51395L 12.2968 15.3611L 5.41496 17.5698Z"/>
<path id="path11_fill" d="M 21.1316 11.2646L 11.1418 18.9953C 9.58784 20.3205 7.81188 20.7623 6.25792 20.3205C 4.48196 20.0997 2.928 18.9953 1.81803 17.2283C 0.486058 15.4613 -0.179927 13.9151 0.0420681 12.1481C 0.264063 10.3811 1.15204 9.05589 2.706 7.73064L 12.6958 -1.68515e-06L 14.6937 2.6505L 4.48196 10.3811C 3.37199 11.0438 2.928 11.9273 2.706 12.8108C 2.48401 13.6943 2.928 14.5778 3.59398 15.6822C 5.14795 17.67 6.9239 17.8909 9.14385 16.3448L 19.1336 8.83501L 21.1316 11.2646Z"/>
<path id="path12_fill" d="M 12.6537 14.7987L 6.43784 10.602L 2.66394 13.2525L 0 11.4855L 16.6496 1.68515e-06L 19.0915 1.767L 14.2077 21.4249L 11.3217 19.437L 12.6537 14.7987ZM 8.87978 9.05589L 13.3197 12.1481L 15.5396 4.19663L 8.87978 9.05589Z"/>
<path id="path13_fill" d="M 8.87978 13.2525L 5.32787 12.1481L 3.10792 18.9953L -8.46842e-07 18.1118L 5.54986 -3.37029e-06L 11.9877 1.98788C 13.9857 2.6505 15.5396 3.534 16.4276 4.85926C 17.3156 6.18451 17.5376 7.73064 16.8716 9.49764C 16.4276 10.602 15.9836 11.7064 15.0956 12.369C 14.2077 13.0316 13.3197 13.4734 11.9877 13.4734L 13.7637 22.3084L 13.7637 22.5293L 10.4337 21.4249L 8.87978 13.2525ZM 5.99386 9.71851L 9.32377 10.602C 10.4337 10.8229 11.3217 10.8229 11.9877 10.602C 12.6537 10.1603 13.3197 9.71851 13.5417 8.61414C 13.7637 7.73064 13.7637 6.84714 13.3197 6.18451C 12.8757 5.52189 12.2097 4.85926 11.0997 4.63838L 7.76981 3.53401L 5.99386 9.71851Z"/>
<path id="path14_fill" d="M 12.2097 14.5778L 4.88388 14.5778L 3.32992 18.9953L -3.38737e-06 18.9953L 6.88184 3.37029e-06L 9.76776 3.37029e-06L 17.3156 18.7744L 13.9857 18.7744L 12.2097 14.5778ZM 5.77186 11.9273L 11.3217 11.9273L 8.4358 4.19663L 5.77186 11.9273Z"/>
<path id="path15_fill" d="M 20.4235 17.67L 17.3156 18.7744L 4.88388 9.05589L 9.54577 21.6458L 6.43785 22.7502L -1.69368e-06 5.08014L 3.10793 3.97576L 15.5396 13.6943L 10.8777 1.10437L 13.9857 -3.37029e-06L 20.4235 17.67Z"/>
<path id="path16_fill" d="M 13.5417 1.98788L 8.87979 5.52189L 18.8695 18.3327L 16.2056 20.3205L 6.21585 7.50976L 1.55397 11.0438L 1.69368e-06 9.05589L 11.9877 3.37029e-06L 13.5417 1.98788Z"/>
<path id="path17_fill" d="M 15.0956 7.50976L 10.4338 13.6943L 15.0956 17.0074L 20.4235 9.71851L 22.6435 11.2646L 15.3176 21.204L 1.69368e-06 9.93939L 7.32582 3.37029e-06L 9.54577 1.54612L 4.21789 8.83502L 8.4358 11.9273L 13.0977 5.74276L 15.0956 7.50976Z"/>
<path id="path18_fill" d="M 13.7637 4.85925L 11.0997 12.1481L 16.4276 14.136L 19.7575 5.74276L 17.0438 17.6254L 0 11.4855L 4.43989 0L 6.88184 0.883496L 3.77391 9.27676L 8.6578 11.0438L 11.3217 3.75487L 13.7637 4.85925Z"/>
<path id="path19_fill" fill-rule="evenodd" d="M 60.1703 10.6438L 31.6278 39.4578L 21.0865 50.1017L 10.5433 39.4578L 8.28633e-07 28.814L 10.5433 18.1702L 21.0865 28.814L 49.627 -7.97943e-07L 60.1703 10.6438Z"/>
<path id="path20_fill" fill-rule="evenodd" d="M 2.04408e-06 70C 2.04408e-06 70 1.65624 -6.17622e-08 63 -6.17622e-08L 2.04408e-06 70Z"/>
</defs>
</svg>
